PathFileType	4	(X/Y/Z)	32_2_99_p1_0-231_filt_butterworth.trc
DataRate	CameraRate	NumFrames	NumMarkers	Units	OrigDataRate	OrigDataStartFrame	OrigNumFrames
60.0	60.0	5	27	m	60.0	115	231
Frame#	Time	RHip			RKnee			RAnkle			RBigToe			RSmallToe			RHeel			LHip			LKnee			LAnkle			LBigToe			LSmallToe			LHeel			Neck			Head			Nose			RShoulder			RElbow			RWrist			RThumb			RIndex			RPinky			LShoulder			LElbow			LWrist			LThumb			LIndex			LPinky			
		X1	Y1	Z1	X2	Y2	Z2	X3	Y3	Z3	X4	Y4	Z4	X5	Y5	Z5	X6	Y6	Z6	X7	Y7	Z7	X8	Y8	Z8	X9	Y9	Z9	X10	Y10	Z10	X11	Y11	Z11	X12	Y12	Z12	X13	Y13	Z13	X14	Y14	Z14	X15	Y15	Z15	X16	Y16	Z16	X17	Y17	Z17	X18	Y18	Z18	X19	Y19	Z19	X20	Y20	Z20	X21	Y21	Z21	X22	Y22	Z22	X23	Y23	Z23	X24	Y24	Z24	X25	Y25	Z25	X26	Y26	Z26	X27	Y27	Z27	
115	1.9166666666666667	0.3296636737782052	0.9770080608150171	0.39550074094964816	0.3207350731610899	0.5312252562540143	0.44593799839703807	0.31449659364257987	0.11579667421486843	0.4790384837272643	0.310583119625517	0.12325173051185884	0.3058420736228542	0.37284343196260084	0.10535915715879399	0.34301991697388223	0.2975064548752442	0.012342202952347886	0.5721551463828946	0.13390830925336822	0.963500639943323	0.413817571484987	0.13939054064186457	0.5239196988569739	0.4973965270516285	0.13035712484815543	0.08803769497476215	0.504717023643692	0.14106015805065436	0.11616273333413635	0.3075411728616953	0.09474312086978906	0.09878887290221551	0.3573153122281295	0.14191008480474004	0.04248963549523983	0.5424772342507903	0.23259915065285702	1.464354542496937	0.38094860134303027	0.24281244761753343	1.7100047590496674	0.2886698615286074	0.22815138415564495	1.5851052209847196	0.24363468694405283	0.38637002108945395	1.402203025489332	0.3909403759678954	0.4297960929554353	1.1596346157701019	0.4021606074425661	0.44165167823215956	0.9375465495892574	0.33826710596597687	0.4009059760842113	0.8513848077250932	0.25517216560714057	0.42893539163700123	0.8281803541402142	0.27204118323630866	0.45354478557822386	0.8168141798404074	0.3180086054386562	0.07638597107004913	1.4034132230767775	0.4260093864934264	0.06105909795329301	1.1665673901686033	0.4164356139800234	0.033025705458344455	0.9514484730444799	0.3067056324794112	0.03317546506566249	0.8732920702392571	0.27375674889955093	0.0018313530316681887	0.8764372134612726	0.23629728466997774	-0.0030745921243175876	0.8518818720464595	0.285360706278544	
116	1.933333333333333	0.3299768558749479	0.9763069856470636	0.3961137939829076	0.3208421151924064	0.5306691903013943	0.44605250697202586	0.3140993724881521	0.11547421739900056	0.480358580869647	0.31039977270515934	0.12336242000969964	0.3056756840099263	0.37310179621714024	0.10396132749099839	0.3439582036232872	0.2975920478529717	0.012361753681610639	0.5726897309142326	0.13459621824165602	0.9631729679884735	0.41533308982796524	0.1393374372423688	0.5236098613000135	0.497250126248221	0.13035212820465988	0.08804926283209165	0.5047199570529968	0.14141106974983947	0.11469150456765623	0.3099155743910473	0.0955552011581505	0.0998339786617683	0.3548578483556934	0.1416984523759171	0.04259956905160643	0.5428253384249846	0.23326822298658867	1.4643976058936625	0.3812316439097044	0.241119889600035	1.7099275414482067	0.28975724846824175	0.22762858188290003	1.5839123593103985	0.24287911541334795	0.3864738167392471	1.4021229391860224	0.39099009701167653	0.42728581743109084	1.1582859616754655	0.40396241851439785	0.4412769303972954	0.9366127781036889	0.33818694154441825	0.4051242878300334	0.8480463933438078	0.2549563309717728	0.43639185550612336	0.8237746763636252	0.2805283579379642	0.45525220446926457	0.8167108975907896	0.3187801533210689	0.07631433301930166	1.404714270820412	0.42589723305666877	0.06112577405364774	1.1665308336525835	0.41675386332824793	0.034012231603642556	0.9521542244939226	0.30646918678447915	0.03251750359636136	0.8758507136664876	0.27430101316029565	0.0001468797723800011	0.87906103896718	0.23359012303189083	-0.0032732495739559134	0.8528739341112873	0.284987207907246	
117	1.95	0.33026675555599216	0.9755980462348053	0.396571350829508	0.32101382469083234	0.5300018201420776	0.4461059601443254	0.31372566144747693	0.1152077878434188	0.48162095194659665	0.30930800068203546	0.12372709513133427	0.3050546216987185	0.37252610231502625	0.10367325755261693	0.34314110642016077	0.2976885702634937	0.012234243376236947	0.5729177596447658	0.13536520641793548	0.9628602195837541	0.4168071270933731	0.1393113055451605	0.5231656516288992	0.49714352827520536	0.13034979784862036	0.08805136764125043	0.5047250295347078	0.14158556168644232	0.11364623702519162	0.311832314316515	0.09615607470080045	0.10057304549065424	0.3529575445263984	0.14158513245460078	0.042695379501733154	0.54285784821533	0.23410574423548322	1.4646438840795537	0.3817178459319419	0.23890000644147458	1.7098013007153976	0.29114872163037653	0.2266982504632345	1.5822760220184215	0.24169578991562052	0.38657870173236364	1.4020708003870455	0.39124254420008203	0.4249421260983375	1.1565369575579392	0.40783924046562775	0.4405918347491631	0.9370948288080213	0.33811020738509384	0.40784094996837894	0.8475992115825282	0.2534540794952418	0.44057331531074895	0.8226660912635327	0.2865302698544769	0.4558851265069817	0.8178263152360989	0.31962008353219856	0.07624343959086768	1.4062293259607546	0.42580519244333326	0.061132184413407814	1.1660049097733491	0.4170760898022536	0.033880545938011035	0.9512319785127247	0.3072818690688842	0.03112272454683844	0.8761891461244785	0.2762065769156914	-0.0025730490581696566	0.8800410379574882	0.23134784898864738	-0.005931141563147429	0.8516593533439158	0.2874631503235675	
118	1.9666666666666663	0.3306803546018751	0.974987975453536	0.3968291104091361	0.32124840982653097	0.5291925062162268	0.44616613822731677	0.3133825693971329	0.11504466721963501	0.48277804683267705	0.3073989158406444	0.12447908790215392	0.3037726952302628	0.37123519262566873	0.1045451555403769	0.34094059353600026	0.29778609348315743	0.011924739722155523	0.5729086760158243	0.1363102668356219	0.9626393413052792	0.4179884671816814	0.13933375189183034	0.5226379957647372	0.49710499490020826	0.1303505150114453	0.08804666916402554	0.504730315001318	0.14160272899335957	0.11318321561171371	0.3129453252223163	0.09646099742139126	0.10085324916855452	0.3518782340943515	0.14163262319447645	0.042960929781311344	0.5424097137671945	0.2349981674215337	1.4650982821380727	0.38231654557561584	0.23622725165134803	1.7095696950569819	0.29293714292404016	0.22528393864328317	1.5803361262585351	0.2401791996637559	0.3866380205955594	1.4021622430521212	0.39165336818244495	0.42302920328359517	1.1548792503679115	0.412893005932441	0.4397143145957413	0.9385990041530256	0.3380190001018812	0.40818173885192066	0.8497322625204838	0.2514800157327136	0.44024123442462243	0.8250128687847057	0.28801510300976474	0.4549751520828509	0.8194463006303712	0.32040314575383455	0.07617637270397065	1.4074948322151137	0.42571654640280265	0.06107072758837209	1.1650078432078044	0.4173197434713978	0.032636715878673894	0.9489308585115336	0.3088997261371412	0.029288321280537377	0.8742351049061179	0.27886107471556104	-0.00586926043205669	0.8792034646825185	0.22983305710332425	-0.010537267912492168	0.8484287733450172	0.2924936771056581	
119	1.9833333333333327	0.33135301444068604	0.9745421284900825	0.39694746106516904	0.3215343919109154	0.5282900508622026	0.4463384071143838	0.31308005230543867	0.11503620595976799	0.48377452159706535	0.30515111447894905	0.1255721383224196	0.3019182745354412	0.3695352546676882	0.10627603859577374	0.33807124338062255	0.29782812733733766	0.011546070483122731	0.572754658012119	0.1375259993633951	0.9624778200778547	0.41879528348152467	0.13939632534678562	0.5220790458473377	0.49712719517991855	0.13035381500395496	0.08803737070590496	0.504734078994038	0.1415048579888642	0.11341185764323451	0.31291352923753424	0.09648752856638806	0.10067369006393222	0.35162030101451447	0.14184887614796923	0.04348270431994576	0.5415401217542167	0.23578439002104157	1.4656817047864914	0.38290195886610745	0.23316565653435362	1.7091944407311332	0.29530547799279805	0.22325308093979146	1.5782987701450386	0.23884176301702606	0.3866449513790946	1.402567838466088	0.3921186875391583	0.42164118617367297	1.1538331165358988	0.4182167413944597	0.4386331663224734	0.9406130456469967	0.3378409287494081	0.4057173857803983	0.8534757546944018	0.2506335938245269	0.43522903228060017	0.830139016073963	0.2843306355924632	0.45254411323744886	0.8214643636310066	0.32090047675711797	0.07611613904174631	1.4081215638032094	0.4256156253813794	0.06094754335157161	1.1635369285414803	0.41742550485746954	0.03065181756131656	0.9458103639633747	0.31085110411927047	0.027312444005368343	0.8703805505973577	0.28153522240429124	-0.009361871024657263	0.8763735672277205	0.22961575693315858	-0.016247644165199807	0.8435739982868669	0.29945168555105156	
